<?xml version="1.0" encoding="UTF-8" standalone="no"?>
<svg width="352px" height="51px" viewBox="0 0 352 51" version="1.1" xmlns="http://www.w3.org/2000/svg" xmlns:xlink="http://www.w3.org/1999/xlink" xmlns:sketch="http://www.bohemiancoding.com/sketch/ns">
    <!-- Generator: Sketch 3.3.2 (12043) - http://www.bohemiancoding.com/sketch -->
    <title>cbt-logo</title>
    <desc>Created with Sketch.</desc>
    <defs></defs>
    <g id="Page-1" stroke="none" stroke-width="1" fill="none" fill-rule="evenodd" sketch:type="MSPage">
        <g id="cbt-logo" sketch:type="MSLayerGroup">
            <g id="Page-1" sketch:type="MSShapeGroup">
                <g id="narrative-homepage-2">
                    <g id="Imported-Layers-+-CrossBrowserTesting-+-Browser-+-Group">
                        <g id="Imported-Layers" transform="translate(0.500000, 0.500000)">
                            <path d="M15.7274319,38.1854085 C12.0889105,32.1558365 10.0857977,26.2624514 9.15350192,21.0731518 C8.94007785,19.8879378 8.78307392,18.7387159 8.67509731,17.6336576 C8.45038908,15.3289883 8.43813231,13.2132295 8.57918285,11.3484436 L8.57918285,11.3466926 C8.45252915,11.4848249 8.327821,11.6241245 8.20389108,11.763035 C8.18365762,11.7861868 8.16206223,11.8087548 8.14182877,11.8319066 C8.01439692,11.9749027 7.88832685,12.1190662 7.763035,12.2634242 C7.74066146,12.2891051 7.71828792,12.3149805 7.69533077,12.3406615 C7.27431907,12.8276265 6.86303502,13.3212062 6.46459144,13.8229572 C3.76692607,17.2163424 1.59805448,20.9441635 0,24.9038911 C0.134046692,25.235214 0.273735408,25.5640078 0.414202335,25.8914397 C1.96536965,29.4850195 3.99163424,32.8754864 6.46439688,35.9850195 C6.98385214,36.6392996 7.52354085,37.2811284 8.08190662,37.9101168 L11.5338522,38.1696498 C12.472179,38.2398832 13.9062257,38.2906615 15.7274319,38.1854085" id="Fill-1" fill="#276691"></path>
                            <path d="M21.0774319,40.6603113 C19.8937743,40.8743191 18.7451362,41.033463 17.6404669,41.142607 C15.342607,41.3698444 13.2330739,41.3854085 11.3698444,41.2490272 C11.3474708,41.2474708 11.3250973,41.2466926 11.3019455,41.2445525 C12.1062257,41.9817121 12.9319066,42.6861868 13.7784047,43.3595331 C17.1714008,46.0566148 20.8994163,48.2249027 24.8593385,49.8231518 C25.2068093,49.6828794 25.5525292,49.536965 25.8955253,49.3881323 C29.4708172,47.8389105 32.8451362,45.820428 35.9404669,43.3597276 C36.6046692,42.8311284 37.2568093,42.2836576 37.894358,41.7163424 L38.1546692,38.2603113 C38.2249027,37.3243191 38.2754864,35.8941635 38.1702335,34.0766537 C32.1498055,37.716537 26.263035,39.7233463 21.0774319,40.6603113" id="Fill-2" fill="#F78921"></path>
                            <path d="M34.0692607,11.6357977 C37.7064202,17.6550584 39.7108949,23.5389105 40.6474708,28.7223735 C40.8610895,29.9079766 41.0194552,31.0566148 41.1282102,32.1616732 C41.3550584,34.4544747 41.3702335,36.5603113 41.2350195,38.4200389 C41.2326848,38.4439688 41.2311284,38.4675097 41.2297665,38.4914397 C41.9669261,37.6881323 42.6725681,36.8612841 43.3439688,36.0149805 C46.0422179,32.6217898 48.2105058,28.894358 49.8083658,24.9340467 C49.6780155,24.6097276 49.5420234,24.2881323 49.4036965,23.9671206 C47.8511673,20.3663424 45.8212062,16.9682879 43.3441635,13.8529183 C42.8210117,13.1945525 42.2780155,12.5486382 41.7171206,11.9161478 L38.2311284,11.6536965 C37.2978599,11.5836576 35.8762646,11.5338522 34.0692607,11.6357977" id="Fill-3" fill="#CC2128"></path>
                            <path d="M35.9857977,6.46361868 C32.5929961,3.76653696 28.8642023,1.59824903 24.9040856,0 C24.5826848,0.129766537 24.2636187,0.264980545 23.9451362,0.401750973 C20.3410506,1.95486382 16.9410506,3.98521401 13.8223735,6.46361868 C13.1752918,6.97840467 12.5412452,7.51186771 11.9188716,8.06420231 L11.6536965,11.5782102 C11.5846304,12.5071985 11.5340467,13.9231518 11.6357977,15.7215953 C17.6529183,12.0906615 23.535214,10.0900778 28.7157588,9.15719846 C29.9019455,8.94396885 31.0501945,8.78540854 32.155642,8.67704277 C34.4527238,8.451751 36.5622568,8.43813231 38.4241245,8.57645915 C38.436965,8.57723738 38.4492218,8.57762646 38.4612841,8.57898831 C37.657393,7.84163423 36.8315175,7.13677043 35.9857977,6.46361868" id="Fill-4" fill="#146E39"></path>
                        </g>
                        <g id="CrossBrowserTesting-+-Browser-+-Group" transform="translate(63.000000, 7.000000)">
                            <g id="CrossBrowserTesting-+-Browser">
                                <path d="M10.7,21.36 C15.08,21.36 17.63,18.93 19.04,16.44 L15.38,14.67 C14.54,16.29 12.74,17.58 10.7,17.58 C7.04,17.58 4.4,14.79 4.4,11.01 C4.4,7.23 7.04,4.44 10.7,4.44 C12.74,4.44 14.54,5.73 15.38,7.35 L19.04,5.55 C17.63,3.03 15.08,0.66 10.7,0.66 C4.67,0.66 0.02,4.83 0.02,11.01 C0.02,17.16 4.67,21.36 10.7,21.36 L10.7,21.36 L10.7,21.36 Z M25.31,21 L25.31,11.43 C25.94,10.5 27.62,9.78 28.88,9.78 C29.33,9.78 29.66,9.81 29.93,9.87 L29.93,6.15 C28.13,6.15 26.36,7.2 25.31,8.46 L25.31,6.51 L21.5,6.51 L21.5,21 L25.31,21 L25.31,21 Z M39.02,21.36 C43.82,21.36 46.7,17.85 46.7,13.74 C46.7,9.63 43.82,6.15 39.02,6.15 C34.25,6.15 31.37,9.63 31.37,13.74 C31.37,17.85 34.25,21.36 39.02,21.36 L39.02,21.36 L39.02,21.36 Z M39.02,17.97 C36.65,17.97 35.33,16.02 35.33,13.74 C35.33,11.49 36.65,9.54 39.02,9.54 C41.42,9.54 42.74,11.49 42.74,13.74 C42.74,16.02 41.42,17.97 39.02,17.97 L39.02,17.97 L39.02,17.97 Z M54.77,21.36 C58.79,21.36 61.07,19.41 61.07,16.74 C61.07,10.89 52.46,12.69 52.46,10.56 C52.46,9.75 53.36,9.15 54.74,9.15 C56.51,9.15 58.16,9.93 59.03,10.83 L60.56,8.13 C59.12,6.99 57.17,6.15 54.74,6.15 C50.9,6.15 48.8,8.28 48.8,10.71 C48.8,16.41 57.38,14.46 57.38,16.83 C57.38,17.73 56.6,18.36 54.95,18.36 C53.15,18.36 51.02,17.37 49.94,16.35 L48.29,19.11 C49.82,20.52 52.25,21.36 54.77,21.36 L54.77,21.36 L54.77,21.36 Z M69.08,21.36 C73.1,21.36 75.38,19.41 75.38,16.74 C75.38,10.89 66.77,12.69 66.77,10.56 C66.77,9.75 67.67,9.15 69.05,9.15 C70.82,9.15 72.47,9.93 73.34,10.83 L74.87,8.13 C73.43,6.99 71.48,6.15 69.05,6.15 C65.21,6.15 63.11,8.28 63.11,10.71 C63.11,16.41 71.69,14.46 71.69,16.83 C71.69,17.73 70.91,18.36 69.26,18.36 C67.46,18.36 65.33,17.37 64.25,16.35 L62.6,19.11 C64.13,20.52 66.56,21.36 69.08,21.36 L69.08,21.36 L69.08,21.36 Z M199.91,21 L199.91,4.74 L205.73,4.74 L205.73,0.99 L189.77,0.99 L189.77,4.74 L195.62,4.74 L195.62,21 L199.91,21 L199.91,21 Z M215.18,21.36 C217.43,21.36 219.71,20.67 221.15,19.35 L219.44,16.83 C218.51,17.73 216.83,18.24 215.6,18.24 C213.14,18.24 211.7,16.77 211.43,15 L222.2,15 L222.2,14.1 C222.2,9.39 219.29,6.15 214.94,6.15 C210.56,6.15 207.44,9.54 207.44,13.74 C207.44,18.39 210.77,21.36 215.18,21.36 L215.18,21.36 L215.18,21.36 Z M218.54,12.36 L211.4,12.36 C211.55,10.92 212.57,9.27 214.94,9.27 C217.46,9.27 218.42,10.98 218.54,12.36 L218.54,12.36 L218.54,12.36 Z M230.18,21.36 C234.2,21.36 236.48,19.41 236.48,16.74 C236.48,10.89 227.87,12.69 227.87,10.56 C227.87,9.75 228.77,9.15 230.15,9.15 C231.92,9.15 233.57,9.93 234.44,10.83 L235.97,8.13 C234.53,6.99 232.58,6.15 230.15,6.15 C226.31,6.15 224.21,8.28 224.21,10.71 C224.21,16.41 232.79,14.46 232.79,16.83 C232.79,17.73 232.01,18.36 230.36,18.36 C228.56,18.36 226.43,17.37 225.35,16.35 L223.7,19.11 C225.23,20.52 227.66,21.36 230.18,21.36 L230.18,21.36 L230.18,21.36 Z M244.13,21.36 C245.72,21.36 246.74,20.94 247.31,20.43 L246.5,17.52 C246.29,17.76 245.75,17.97 245.18,17.97 C244.34,17.97 243.86,17.28 243.86,16.35 L243.86,9.84 L246.8,9.84 L246.8,6.51 L243.86,6.51 L243.86,2.55 L240.05,2.55 L240.05,6.51 L237.65,6.51 L237.65,9.84 L240.05,9.84 L240.05,17.37 C240.05,19.98 241.46,21.36 244.13,21.36 L244.13,21.36 L244.13,21.36 Z M251.3,4.95 C252.56,4.95 253.58,3.93 253.58,2.67 C253.58,1.41 252.56,0.42 251.3,0.42 C250.07,0.42 249.05,1.41 249.05,2.67 C249.05,3.93 250.07,4.95 251.3,4.95 L251.3,4.95 L251.3,4.95 Z M253.22,21 L253.22,6.51 L249.41,6.51 L249.41,21 L253.22,21 L253.22,21 Z M270.62,21 L270.62,10.77 C270.62,7.95 269.09,6.15 265.88,6.15 C263.54,6.15 261.74,7.29 260.81,8.37 L260.81,6.51 L257,6.51 L257,21 L260.81,21 L260.81,11.22 C261.47,10.38 262.61,9.54 264.11,9.54 C265.73,9.54 266.78,10.23 266.78,12.24 L266.78,21 L270.62,21 L270.62,21 Z M280.31,26.88 C283.88,26.88 288.14,25.53 288.14,20.04 L288.14,6.51 L284.33,6.51 L284.33,8.37 C283.16,6.87 281.57,6.15 279.83,6.15 C276.17,6.15 273.44,8.79 273.44,13.53 C273.44,18.36 276.23,20.88 279.83,20.88 C281.63,20.88 283.19,20.07 284.33,18.63 L284.33,20.04 C284.33,22.98 282.14,23.76 280.31,23.76 C278.51,23.76 276.95,23.25 275.78,21.99 L274.07,24.72 C275.9,26.31 277.85,26.88 280.31,26.88 L280.31,26.88 L280.31,26.88 Z M281.06,17.52 C278.87,17.52 277.37,16.02 277.37,13.53 C277.37,11.04 278.87,9.54 281.06,9.54 C282.29,9.54 283.67,10.23 284.33,11.16 L284.33,15.87 C283.67,16.8 282.29,17.52 281.06,17.52 L281.06,17.52 L281.06,17.52 Z" id="CrossBrowserTesting" fill="#424143"></path>
                                <g id="Browser" transform="translate(78.000000, 0.000000)" fill="#266590">
                                    <path d="M11.12,21 C14.96,21 16.94,18.6 16.94,15.57 C16.94,13.08 15.26,11.01 13.1,10.68 C14.99,10.29 16.55,8.58 16.55,6.09 C16.55,3.42 14.6,0.99 10.79,0.99 L0.26,0.99 L0.26,21 L11.12,21 L11.12,21 Z M9.86,8.94 L4.52,8.94 L4.52,4.74 L9.86,4.74 C11.3,4.74 12.2,5.61 12.2,6.84 C12.2,8.13 11.3,8.94 9.86,8.94 L9.86,8.94 Z M10.04,17.25 L4.52,17.25 L4.52,12.69 L10.04,12.69 C11.69,12.69 12.59,13.71 12.59,14.97 C12.59,16.41 11.63,17.25 10.04,17.25 L10.04,17.25 Z" id="Path"></path>
                                    <path d="M23.87,21 L23.87,11.43 C24.5,10.5 26.18,9.78 27.44,9.78 C27.89,9.78 28.22,9.81 28.49,9.87 L28.49,6.15 C26.69,6.15 24.92,7.2 23.87,8.46 L23.87,6.51 L20.06,6.51 L20.06,21 L23.87,21 L23.87,21 Z" id="Path"></path>
                                    <path d="M37.58,21.36 C42.38,21.36 45.26,17.85 45.26,13.74 C45.26,9.63 42.38,6.15 37.58,6.15 C32.81,6.15 29.93,9.63 29.93,13.74 C29.93,17.85 32.81,21.36 37.58,21.36 L37.58,21.36 Z M37.58,17.97 C35.21,17.97 33.89,16.02 33.89,13.74 C33.89,11.49 35.21,9.54 37.58,9.54 C39.98,9.54 41.3,11.49 41.3,13.74 C41.3,16.02 39.98,17.97 37.58,17.97 L37.58,17.97 Z" id="Path"></path>
                                    <path d="M64.91,21 L69.32,6.51 L65.33,6.51 L62.63,16.26 L59.45,6.51 L56.06,6.51 L52.88,16.26 L50.18,6.51 L46.22,6.51 L50.63,21 L54.71,21 L57.77,11.13 L60.83,21 L64.91,21 L64.91,21 Z" id="Path"></path>
                                    <path d="M76.43,21.36 C80.45,21.36 82.73,19.41 82.73,16.74 C82.73,10.89 74.12,12.69 74.12,10.56 C74.12,9.75 75.02,9.15 76.4,9.15 C78.17,9.15 79.82,9.93 80.69,10.83 L82.22,8.13 C80.78,6.99 78.83,6.15 76.4,6.15 C72.56,6.15 70.46,8.28 70.46,10.71 C70.46,16.41 79.04,14.46 79.04,16.83 C79.04,17.73 78.26,18.36 76.61,18.36 C74.81,18.36 72.68,17.37 71.6,16.35 L69.95,19.11 C71.48,20.52 73.91,21.36 76.43,21.36 L76.43,21.36 L76.43,21.36 Z" id="Path"></path>
                                    <path d="M92.33,21.36 C94.58,21.36 96.86,20.67 98.3,19.35 L96.59,16.83 C95.66,17.73 93.98,18.24 92.75,18.24 C90.29,18.24 88.85,16.77 88.58,15 L99.35,15 L99.35,14.1 C99.35,9.39 96.44,6.15 92.09,6.15 C87.71,6.15 84.59,9.54 84.59,13.74 C84.59,18.39 87.92,21.36 92.33,21.36 L92.33,21.36 Z M95.69,12.36 L88.55,12.36 C88.7,10.92 89.72,9.27 92.09,9.27 C94.61,9.27 95.57,10.98 95.69,12.36 L95.69,12.36 Z" id="Path"></path>
                                    <path d="M105.92,21 L105.92,11.43 C106.55,10.5 108.23,9.78 109.49,9.78 C109.94,9.78 110.27,9.81 110.54,9.87 L110.54,6.15 C108.74,6.15 106.97,7.2 105.92,8.46 L105.92,6.51 L102.11,6.51 L102.11,21 L105.92,21 L105.92,21 Z" id="Path"></path>
                                </g>
                            </g>
                            <g id="Group" transform="translate(1.000000, 30.000000)">
                                <path d="M65.5,0.5 L65.5,6.58276272" id="Line" stroke="#979797"></path>
                                <path d="M168.5,0.5 L168.5,6.58276272" id="Line-Copy" stroke="#979797"></path>
                                <path d="M1.88,7 L1.88,4.5 L3.65,4.5 C5.04,4.5 5.82,3.55 5.82,2.42 C5.82,1.28 5.05,0.33 3.65,0.33 L0.71,0.33 L0.71,7 L1.88,7 L1.88,7 Z M3.49,3.47 L1.88,3.47 L1.88,1.36 L3.49,1.36 C4.15,1.36 4.62,1.78 4.62,2.42 C4.62,3.05 4.15,3.47 3.49,3.47 L3.49,3.47 L3.49,3.47 Z M7.97,7 L7.97,0.33 L6.8,0.33 L6.8,7 L7.97,7 L7.97,7 Z M12.6,7.12 C13.94,7.12 14.77,6.41 15.28,5.61 L14.28,5.11 C13.96,5.66 13.31,6.08 12.6,6.08 C11.28,6.08 10.3,5.06 10.3,3.67 C10.3,2.26 11.28,1.26 12.6,1.26 C13.31,1.26 13.96,1.67 14.28,2.23 L15.27,1.71 C14.78,0.91 13.94,0.22 12.6,0.22 C10.63,0.22 9.1,1.61 9.1,3.67 C9.1,5.72 10.63,7.12 12.6,7.12 L12.6,7.12 L12.6,7.12 Z M21.65,7 L18.73,3.47 L21.44,0.33 L19.99,0.33 L17.38,3.5 L17.38,0.33 L16.21,0.33 L16.21,7 L17.38,7 L17.38,4.87 L17.97,4.18 L20.2,7 L21.65,7 L21.65,7 Z M31.01,7 L28.39,0.33 L26.93,0.33 L24.31,7 L25.64,7 L26.13,5.71 L29.19,5.71 L29.68,7 L31.01,7 L31.01,7 Z M28.86,4.68 L26.46,4.68 L27.66,1.5 L28.86,4.68 L28.86,4.68 Z M37.51,7 L37.51,0.33 L36.34,0.33 L36.34,4.95 L32.93,0.33 L31.73,0.33 L31.73,7 L32.9,7 L32.9,2.23 L36.38,7 L37.51,7 L37.51,7 Z M44.63,7.12 C46.62,7.12 48.04,5.66 48.04,3.67 C48.04,1.68 46.62,0.22 44.63,0.22 C42.63,0.22 41.22,1.68 41.22,3.67 C41.22,5.66 42.63,7.12 44.63,7.12 L44.63,7.12 L44.63,7.12 Z M44.63,6.08 C43.28,6.08 42.42,5.04 42.42,3.67 C42.42,2.29 43.28,1.26 44.63,1.26 C45.97,1.26 46.84,2.29 46.84,3.67 C46.84,5.04 45.97,6.08 44.63,6.08 L44.63,6.08 L44.63,6.08 Z M51.45,7.12 C53.24,7.12 54.03,6.16 54.03,5.05 C54.03,2.57 50.15,3.34 50.15,2.09 C50.15,1.6 50.59,1.26 51.27,1.26 C51.97,1.26 52.68,1.5 53.21,2.03 L53.87,1.16 C53.26,0.56 52.41,0.22 51.38,0.22 C49.91,0.22 48.95,1.07 48.95,2.18 C48.95,4.63 52.83,3.76 52.83,5.16 C52.83,5.61 52.46,6.08 51.5,6.08 C50.57,6.08 49.84,5.64 49.39,5.15 L48.73,6.06 C49.33,6.68 50.22,7.12 51.45,7.12 L51.45,7.12 L51.45,7.12 Z" id="PICK-AN-OS" fill="#9B9B9B"></path>
                                <path d="M76.88,7 L76.88,4.5 L78.65,4.5 C80.04,4.5 80.82,3.55 80.82,2.42 C80.82,1.28 80.05,0.33 78.65,0.33 L75.71,0.33 L75.71,7 L76.88,7 L76.88,7 Z M78.49,3.47 L76.88,3.47 L76.88,1.36 L78.49,1.36 C79.15,1.36 79.62,1.78 79.62,2.42 C79.62,3.05 79.15,3.47 78.49,3.47 L78.49,3.47 L78.49,3.47 Z M83.07,7 L83.07,0.33 L81.9,0.33 L81.9,7 L83.07,7 L83.07,7 Z M87.8,7.12 C89.14,7.12 89.97,6.41 90.48,5.61 L89.48,5.11 C89.16,5.66 88.51,6.08 87.8,6.08 C86.48,6.08 85.5,5.06 85.5,3.67 C85.5,2.26 86.48,1.26 87.8,1.26 C88.51,1.26 89.16,1.67 89.48,2.23 L90.47,1.71 C89.98,0.91 89.14,0.22 87.8,0.22 C85.83,0.22 84.3,1.61 84.3,3.67 C84.3,5.72 85.83,7.12 87.8,7.12 L87.8,7.12 L87.8,7.12 Z M96.95,7 L94.03,3.47 L96.74,0.33 L95.29,0.33 L92.68,3.5 L92.68,0.33 L91.51,0.33 L91.51,7 L92.68,7 L92.68,4.87 L93.27,4.18 L95.5,7 L96.95,7 L96.95,7 Z M106.51,7 L103.89,0.33 L102.43,0.33 L99.81,7 L101.14,7 L101.63,5.71 L104.69,5.71 L105.18,7 L106.51,7 L106.51,7 Z M104.36,4.68 L101.96,4.68 L103.16,1.5 L104.36,4.68 L104.36,4.68 Z M113.38,7 C114.64,7 115.32,6.23 115.32,5.19 C115.32,4.38 114.75,3.67 114.03,3.56 C114.65,3.43 115.19,2.86 115.19,2.03 C115.19,1.09 114.52,0.33 113.29,0.33 L110.01,0.33 L110.01,7 L113.38,7 L113.38,7 Z M113.06,3.08 L111.18,3.08 L111.18,1.36 L113.06,1.36 C113.65,1.36 113.99,1.73 113.99,2.22 C113.99,2.73 113.65,3.08 113.06,3.08 L113.06,3.08 L113.06,3.08 Z M113.11,5.97 L111.18,5.97 L111.18,4.11 L113.11,4.11 C113.77,4.11 114.12,4.54 114.12,5.04 C114.12,5.62 113.74,5.97 113.11,5.97 L113.11,5.97 L113.11,5.97 Z M121.77,7 L120.13,4.38 C120.94,4.25 121.72,3.6 121.72,2.42 C121.72,1.18 120.85,0.33 119.53,0.33 L116.6,0.33 L116.6,7 L117.77,7 L117.77,4.51 L118.94,4.51 L120.41,7 L121.77,7 L121.77,7 Z M119.38,3.48 L117.77,3.48 L117.77,1.36 L119.38,1.36 C120.04,1.36 120.52,1.77 120.52,2.41 C120.52,3.06 120.04,3.48 119.38,3.48 L119.38,3.48 L119.38,3.48 Z M126.11,7.12 C128.1,7.12 129.52,5.66 129.52,3.67 C129.52,1.68 128.1,0.22 126.11,0.22 C124.11,0.22 122.7,1.68 122.7,3.67 C122.7,5.66 124.11,7.12 126.11,7.12 L126.11,7.12 L126.11,7.12 Z M126.11,6.08 C124.76,6.08 123.9,5.04 123.9,3.67 C123.9,2.29 124.76,1.26 126.11,1.26 C127.45,1.26 128.32,2.29 128.32,3.67 C128.32,5.04 127.45,6.08 126.11,6.08 L126.11,6.08 L126.11,6.08 Z M136.89,7 L138.8,0.33 L137.49,0.33 L136.19,5.46 L134.81,0.33 L133.88,0.33 L132.5,5.46 L131.2,0.33 L129.9,0.33 L131.8,7 L133.05,7 L134.35,2.07 L135.64,7 L136.89,7 L136.89,7 Z M141.96,7.12 C143.75,7.12 144.54,6.16 144.54,5.05 C144.54,2.57 140.66,3.34 140.66,2.09 C140.66,1.6 141.1,1.26 141.78,1.26 C142.48,1.26 143.19,1.5 143.72,2.03 L144.38,1.16 C143.77,0.56 142.92,0.22 141.89,0.22 C140.42,0.22 139.46,1.07 139.46,2.18 C139.46,4.63 143.34,3.76 143.34,5.16 C143.34,5.61 142.97,6.08 142.01,6.08 C141.08,6.08 140.35,5.64 139.9,5.15 L139.24,6.06 C139.84,6.68 140.73,7.12 141.96,7.12 L141.96,7.12 L141.96,7.12 Z M150.28,7 L150.28,5.97 L146.88,5.97 L146.88,4.11 L150.21,4.11 L150.21,3.08 L146.88,3.08 L146.88,1.36 L150.28,1.36 L150.28,0.33 L145.71,0.33 L145.71,7 L150.28,7 L150.28,7 Z M156.75,7 L155.11,4.38 C155.92,4.25 156.7,3.6 156.7,2.42 C156.7,1.18 155.83,0.33 154.51,0.33 L151.58,0.33 L151.58,7 L152.75,7 L152.75,4.51 L153.92,4.51 L155.39,7 L156.75,7 L156.75,7 Z M154.36,3.48 L152.75,3.48 L152.75,1.36 L154.36,1.36 C155.02,1.36 155.5,1.77 155.5,2.41 C155.5,3.06 155.02,3.48 154.36,3.48 L154.36,3.48 L154.36,3.48 Z" id="PICK-A-BROWSER" fill="#9B9B9B"></path>
                                <path d="M182.47,7 L182.47,1.36 L184.49,1.36 L184.49,0.33 L179.28,0.33 L179.28,1.36 L181.3,1.36 L181.3,7 L182.47,7 L182.47,7 Z M190.15,7 L190.15,5.97 L186.75,5.97 L186.75,4.11 L190.08,4.11 L190.08,3.08 L186.75,3.08 L186.75,1.36 L190.15,1.36 L190.15,0.33 L185.58,0.33 L185.58,7 L190.15,7 L190.15,7 Z M193.74,7.12 C195.53,7.12 196.32,6.16 196.32,5.05 C196.32,2.57 192.44,3.34 192.44,2.09 C192.44,1.6 192.88,1.26 193.56,1.26 C194.26,1.26 194.97,1.5 195.5,2.03 L196.16,1.16 C195.55,0.56 194.7,0.22 193.67,0.22 C192.2,0.22 191.24,1.07 191.24,2.18 C191.24,4.63 195.12,3.76 195.12,5.16 C195.12,5.61 194.75,6.08 193.79,6.08 C192.86,6.08 192.13,5.64 191.68,5.15 L191.02,6.06 C191.62,6.68 192.51,7.12 193.74,7.12 L193.74,7.12 L193.74,7.12 Z M200.15,7 L200.15,1.36 L202.17,1.36 L202.17,0.33 L196.96,0.33 L196.96,1.36 L198.98,1.36 L198.98,7 L200.15,7 L200.15,7 Z M211.95,7 L209.33,0.33 L207.87,0.33 L205.25,7 L206.58,7 L207.07,5.71 L210.13,5.71 L210.62,7 L211.95,7 L211.95,7 Z M209.8,4.68 L207.4,4.68 L208.6,1.5 L209.8,4.68 L209.8,4.68 Z M221.8,7 L223.71,0.33 L222.4,0.33 L221.1,5.46 L219.72,0.33 L218.79,0.33 L217.41,5.46 L216.11,0.33 L214.81,0.33 L216.71,7 L217.96,7 L219.26,2.07 L220.55,7 L221.8,7 L221.8,7 Z M229.15,7 L229.15,5.97 L225.75,5.97 L225.75,4.11 L229.08,4.11 L229.08,3.08 L225.75,3.08 L225.75,1.36 L229.15,1.36 L229.15,0.33 L224.58,0.33 L224.58,7 L229.15,7 L229.15,7 Z M233.82,7 C235.08,7 235.76,6.23 235.76,5.19 C235.76,4.38 235.19,3.67 234.47,3.56 C235.09,3.43 235.63,2.86 235.63,2.03 C235.63,1.09 234.96,0.33 233.73,0.33 L230.45,0.33 L230.45,7 L233.82,7 L233.82,7 Z M233.5,3.08 L231.62,3.08 L231.62,1.36 L233.5,1.36 C234.09,1.36 234.43,1.73 234.43,2.22 C234.43,2.73 234.09,3.08 233.5,3.08 L233.5,3.08 L233.5,3.08 Z M233.55,5.97 L231.62,5.97 L231.62,4.11 L233.55,4.11 C234.21,4.11 234.56,4.54 234.56,5.04 C234.56,5.62 234.18,5.97 233.55,5.97 L233.55,5.97 L233.55,5.97 Z M239.33,7.12 C241.12,7.12 241.91,6.16 241.91,5.05 C241.91,2.57 238.03,3.34 238.03,2.09 C238.03,1.6 238.47,1.26 239.15,1.26 C239.85,1.26 240.56,1.5 241.09,2.03 L241.75,1.16 C241.14,0.56 240.29,0.22 239.26,0.22 C237.79,0.22 236.83,1.07 236.83,2.18 C236.83,4.63 240.71,3.76 240.71,5.16 C240.71,5.61 240.34,6.08 239.38,6.08 C238.45,6.08 237.72,5.64 237.27,5.15 L236.61,6.06 C237.21,6.68 238.1,7.12 239.33,7.12 L239.33,7.12 L239.33,7.12 Z M244.25,7 L244.25,0.33 L243.08,0.33 L243.08,7 L244.25,7 L244.25,7 Z M248.53,7 L248.53,1.36 L250.55,1.36 L250.55,0.33 L245.34,0.33 L245.34,1.36 L247.36,1.36 L247.36,7 L248.53,7 L248.53,7 Z M256.21,7 L256.21,5.97 L252.81,5.97 L252.81,4.11 L256.14,4.11 L256.14,3.08 L252.81,3.08 L252.81,1.36 L256.21,1.36 L256.21,0.33 L251.64,0.33 L251.64,7 L256.21,7 L256.21,7 Z" id="TEST-A-WEBSITE" fill="#9B9B9B"></path>
                            </g>
                        </g>
                    </g>
                </g>
            </g>
        </g>
    </g>
</svg>